<svg xmlns="http://www.w3.org/2000/svg" xmlns:rdkit="http://www.rdkit.org/xml" xmlns:xlink="http://www.w3.org/1999/xlink" version="1.1" baseProfile="full" xml:space="preserve" width="600px" height="200px" viewBox="0 0 600 200">
<!-- END OF HEADER -->
<rect style="opacity:1.0;fill:#FFFFFF;stroke:none" width="600" height="200" x="0" y="0"> </rect>
<rect style="opacity:1.0;fill:#FFFFFF;stroke:none" width="600" height="200" x="0" y="0"> </rect>
<rect style="opacity:1.0;fill:#FFFFFF;stroke:none" width="600" height="200" x="0" y="0"> </rect>
<rect style="opacity:1.0;fill:#FFFFFF;stroke:none" width="600" height="200" x="0" y="0"> </rect>
<rect style="opacity:1.0;fill:#FFFFFF;stroke:none" width="600" height="200" x="0" y="0"> </rect>
<rect style="opacity:1.0;fill:#FFFFFF;stroke:none" width="600" height="200" x="0" y="0"> </rect>
<rect style="opacity:1.0;fill:#FFFFFF;stroke:none" width="600" height="200" x="0" y="0"> </rect>
<path class="bond-0 atom-0 atom-1" d="M 44.8531,68.3008 L 62.2065,52.64" style="fill:none;fill-rule:evenodd;stroke:#000000;stroke-width:2.0px;stroke-linecap:butt;stroke-linejoin:miter;stroke-opacity:1"/>
<path class="bond-1 atom-1 atom-2" d="M 64.4924,52.1514 L 62.4807,42.7393" style="fill:none;fill-rule:evenodd;stroke:#000000;stroke-width:2.0px;stroke-linecap:butt;stroke-linejoin:miter;stroke-opacity:1"/>
<path class="bond-1 atom-1 atom-2" d="M 62.4807,42.7393 L 60.4689,33.3271" style="fill:none;fill-rule:evenodd;stroke:#FF0000;stroke-width:2.0px;stroke-linecap:butt;stroke-linejoin:miter;stroke-opacity:1"/>
<path class="bond-1 atom-1 atom-2" d="M 59.9207,53.1286 L 57.9089,43.7164" style="fill:none;fill-rule:evenodd;stroke:#000000;stroke-width:2.0px;stroke-linecap:butt;stroke-linejoin:miter;stroke-opacity:1"/>
<path class="bond-1 atom-1 atom-2" d="M 57.9089,43.7164 L 55.8971,34.3042" style="fill:none;fill-rule:evenodd;stroke:#FF0000;stroke-width:2.0px;stroke-linecap:butt;stroke-linejoin:miter;stroke-opacity:1"/>
<path class="bond-2 atom-1 atom-3" d="M 62.2065,52.64 L 71.5146,55.6528" style="fill:none;fill-rule:evenodd;stroke:#000000;stroke-width:2.0px;stroke-linecap:butt;stroke-linejoin:miter;stroke-opacity:1"/>
<path class="bond-2 atom-1 atom-3" d="M 71.5146,55.6528 L 80.8227,58.6655" style="fill:none;fill-rule:evenodd;stroke:#FF0000;stroke-width:2.0px;stroke-linecap:butt;stroke-linejoin:miter;stroke-opacity:1"/>
<path class="bond-3 atom-3 atom-4" d="M 88.0691,56.5685 L 94.9342,50.373" style="fill:none;fill-rule:evenodd;stroke:#FF0000;stroke-width:2.0px;stroke-linecap:butt;stroke-linejoin:miter;stroke-opacity:1"/>
<path class="bond-3 atom-3 atom-4" d="M 94.9342,50.373 L 101.799,44.1774" style="fill:none;fill-rule:evenodd;stroke:#000000;stroke-width:2.0px;stroke-linecap:butt;stroke-linejoin:miter;stroke-opacity:1"/>
<path class="bond-4 atom-4 atom-5" d="M 101.799,44.1774 L 96.9135,21.3185" style="fill:none;fill-rule:evenodd;stroke:#000000;stroke-width:2.0px;stroke-linecap:butt;stroke-linejoin:miter;stroke-opacity:1"/>
<path class="bond-4 atom-4 atom-5" d="M 105.638,39.7714 L 102.218,23.7702" style="fill:none;fill-rule:evenodd;stroke:#000000;stroke-width:2.0px;stroke-linecap:butt;stroke-linejoin:miter;stroke-opacity:1"/>
<path class="bond-12 atom-9 atom-4" d="M 124.039,51.3756 L 101.799,44.1774" style="fill:none;fill-rule:evenodd;stroke:#000000;stroke-width:2.0px;stroke-linecap:butt;stroke-linejoin:miter;stroke-opacity:1"/>
<path class="bond-5 atom-5 atom-6" d="M 96.9135,21.3185 L 114.267,5.65776" style="fill:none;fill-rule:evenodd;stroke:#000000;stroke-width:2.0px;stroke-linecap:butt;stroke-linejoin:miter;stroke-opacity:1"/>
<path class="bond-6 atom-6 atom-7" d="M 114.267,5.65776 L 136.506,12.8559" style="fill:none;fill-rule:evenodd;stroke:#000000;stroke-width:2.0px;stroke-linecap:butt;stroke-linejoin:miter;stroke-opacity:1"/>
<path class="bond-6 atom-6 atom-7" d="M 116.163,11.1854 L 131.731,16.2241" style="fill:none;fill-rule:evenodd;stroke:#000000;stroke-width:2.0px;stroke-linecap:butt;stroke-linejoin:miter;stroke-opacity:1"/>
<path class="bond-7 atom-7 atom-8" d="M 136.506,12.8559 L 141.392,35.7149" style="fill:none;fill-rule:evenodd;stroke:#000000;stroke-width:2.0px;stroke-linecap:butt;stroke-linejoin:miter;stroke-opacity:1"/>
<path class="bond-8 atom-8 atom-9" d="M 141.392,35.7149 L 124.039,51.3756" style="fill:none;fill-rule:evenodd;stroke:#000000;stroke-width:2.0px;stroke-linecap:butt;stroke-linejoin:miter;stroke-opacity:1"/>
<path class="bond-8 atom-8 atom-9" d="M 135.657,34.5933 L 123.51,45.5558" style="fill:none;fill-rule:evenodd;stroke:#000000;stroke-width:2.0px;stroke-linecap:butt;stroke-linejoin:miter;stroke-opacity:1"/>
<path class="bond-9 atom-9 atom-10" d="M 124.039,51.3756 L 128.925,74.2346" style="fill:none;fill-rule:evenodd;stroke:#000000;stroke-width:2.0px;stroke-linecap:butt;stroke-linejoin:miter;stroke-opacity:1"/>
<path class="bond-10 atom-10 atom-11" d="M 128.205,76.4585 L 137.513,79.4712" style="fill:none;fill-rule:evenodd;stroke:#000000;stroke-width:2.0px;stroke-linecap:butt;stroke-linejoin:miter;stroke-opacity:1"/>
<path class="bond-10 atom-10 atom-11" d="M 137.513,79.4712 L 146.821,82.484" style="fill:none;fill-rule:evenodd;stroke:#FF0000;stroke-width:2.0px;stroke-linecap:butt;stroke-linejoin:miter;stroke-opacity:1"/>
<path class="bond-10 atom-10 atom-11" d="M 129.644,72.0106 L 138.953,75.0234" style="fill:none;fill-rule:evenodd;stroke:#000000;stroke-width:2.0px;stroke-linecap:butt;stroke-linejoin:miter;stroke-opacity:1"/>
<path class="bond-10 atom-10 atom-11" d="M 138.953,75.0234 L 148.261,78.0361" style="fill:none;fill-rule:evenodd;stroke:#FF0000;stroke-width:2.0px;stroke-linecap:butt;stroke-linejoin:miter;stroke-opacity:1"/>
<path class="bond-11 atom-10 atom-12" d="M 128.925,74.2346 L 122.059,80.4301" style="fill:none;fill-rule:evenodd;stroke:#000000;stroke-width:2.0px;stroke-linecap:butt;stroke-linejoin:miter;stroke-opacity:1"/>
<path class="bond-11 atom-10 atom-12" d="M 122.059,80.4301 L 115.194,86.6256" style="fill:none;fill-rule:evenodd;stroke:#FF0000;stroke-width:2.0px;stroke-linecap:butt;stroke-linejoin:miter;stroke-opacity:1"/>
<path class="atom-2" d="M 54.2819 29.7998 Q 54.2819 28.2103, 55.0673 27.322 Q 55.8527 26.4338, 57.3207 26.4338 Q 58.7886 26.4338, 59.5741 27.322 Q 60.3595 28.2103, 60.3595 29.7998 Q 60.3595 31.408, 59.5647 32.3243 Q 58.7699 33.2313, 57.3207 33.2313 Q 55.8621 33.2313, 55.0673 32.3243 Q 54.2819 31.4174, 54.2819 29.7998 M 57.3207 32.4833 Q 58.3305 32.4833, 58.8728 31.8101 Q 59.4245 31.1275, 59.4245 29.7998 Q 59.4245 28.5001, 58.8728 27.8456 Q 58.3305 27.1818, 57.3207 27.1818 Q 56.3109 27.1818, 55.7592 27.8363 Q 55.2169 28.4908, 55.2169 29.7998 Q 55.2169 31.1369, 55.7592 31.8101 Q 56.3109 32.4833, 57.3207 32.4833 " fill="#FF0000"/>
<path class="atom-3" d="M 81.4071 59.8569 Q 81.4071 58.2674, 82.1925 57.3791 Q 82.9779 56.4909, 84.4459 56.4909 Q 85.9139 56.4909, 86.6993 57.3791 Q 87.4847 58.2674, 87.4847 59.8569 Q 87.4847 61.4651, 86.6899 62.3814 Q 85.8952 63.2884, 84.4459 63.2884 Q 82.9873 63.2884, 82.1925 62.3814 Q 81.4071 61.4745, 81.4071 59.8569 M 84.4459 62.5404 Q 85.4557 62.5404, 85.998 61.8672 Q 86.5497 61.1846, 86.5497 59.8569 Q 86.5497 58.5572, 85.998 57.9027 Q 85.4557 57.2389, 84.4459 57.2389 Q 83.4361 57.2389, 82.8844 57.8934 Q 82.3421 58.5479, 82.3421 59.8569 Q 82.3421 61.194, 82.8844 61.8672 Q 83.4361 62.5404, 84.4459 62.5404 " fill="#FF0000"/>
<path class="atom-11" d="M 148.125 81.4514 Q 148.125 79.8619, 148.911 78.9737 Q 149.696 78.0854, 151.164 78.0854 Q 152.632 78.0854, 153.417 78.9737 Q 154.203 79.8619, 154.203 81.4514 Q 154.203 83.0597, 153.408 83.976 Q 152.613 84.8829, 151.164 84.8829 Q 149.705 84.8829, 148.911 83.976 Q 148.125 83.069, 148.125 81.4514 M 151.164 84.1349 Q 152.174 84.1349, 152.716 83.4617 Q 153.268 82.7792, 153.268 81.4514 Q 153.268 80.1518, 152.716 79.4973 Q 152.174 78.8334, 151.164 78.8334 Q 150.154 78.8334, 149.602 79.4879 Q 149.06 80.1424, 149.06 81.4514 Q 149.06 82.7885, 149.602 83.4617 Q 150.154 84.1349, 151.164 84.1349 " fill="#FF0000"/>
<path class="atom-12" d="M 102.885 86.6228 L 103.782 86.6228 L 103.782 89.4372 L 107.167 89.4372 L 107.167 86.6228 L 108.065 86.6228 L 108.065 93.2427 L 107.167 93.2427 L 107.167 90.1852 L 103.782 90.1852 L 103.782 93.2427 L 102.885 93.2427 L 102.885 86.6228 " fill="#FF0000"/>
<path class="atom-12" d="M 108.532 89.914 Q 108.532 88.3245, 109.318 87.4362 Q 110.103 86.548, 111.571 86.548 Q 113.039 86.548, 113.824 87.4362 Q 114.61 88.3245, 114.61 89.914 Q 114.61 91.5222, 113.815 92.4385 Q 113.02 93.3455, 111.571 93.3455 Q 110.112 93.3455, 109.318 92.4385 Q 108.532 91.5316, 108.532 89.914 M 111.571 92.5975 Q 112.581 92.5975, 113.123 91.9243 Q 113.675 91.2417, 113.675 89.914 Q 113.675 88.6144, 113.123 87.9598 Q 112.581 87.296, 111.571 87.296 Q 110.561 87.296, 110.01 87.9505 Q 109.467 88.605, 109.467 89.914 Q 109.467 91.2511, 110.01 91.9243 Q 110.561 92.5975, 111.571 92.5975 " fill="#FF0000"/>
<path class="bond-0 atom-0 atom-1" d="M 218.052,42.7232 L 241.383,41.2909" style="fill:none;fill-rule:evenodd;stroke:#000000;stroke-width:2.0px;stroke-linecap:butt;stroke-linejoin:miter;stroke-opacity:1"/>
<path class="bond-1 atom-1 atom-2" d="M 241.383,41.2909 L 251.809,20.3693" style="fill:none;fill-rule:evenodd;stroke:#000000;stroke-width:2.0px;stroke-linecap:butt;stroke-linejoin:miter;stroke-opacity:1"/>
<path class="bond-2 atom-1 atom-3" d="M 241.383,41.2909 L 254.289,60.7803" style="fill:none;fill-rule:evenodd;stroke:#000000;stroke-width:2.0px;stroke-linecap:butt;stroke-linejoin:miter;stroke-opacity:1"/>
<path class="bond-3 atom-3 atom-4" d="M 254.289,60.7803 L 277.621,59.3481" style="fill:none;fill-rule:evenodd;stroke:#000000;stroke-width:2.0px;stroke-linecap:butt;stroke-linejoin:miter;stroke-opacity:1"/>
<path class="bond-4 atom-4 atom-5" d="M 277.621,59.3481 L 288.046,38.4265" style="fill:none;fill-rule:evenodd;stroke:#000000;stroke-width:2.0px;stroke-linecap:butt;stroke-linejoin:miter;stroke-opacity:1"/>
<path class="bond-4 atom-4 atom-5" d="M 283.369,58.2949 L 290.667,43.6498" style="fill:none;fill-rule:evenodd;stroke:#000000;stroke-width:2.0px;stroke-linecap:butt;stroke-linejoin:miter;stroke-opacity:1"/>
<path class="bond-14 atom-9 atom-4" d="M 290.527,78.8375 L 277.621,59.3481" style="fill:none;fill-rule:evenodd;stroke:#000000;stroke-width:2.0px;stroke-linecap:butt;stroke-linejoin:miter;stroke-opacity:1"/>
<path class="bond-5 atom-5 atom-6" d="M 288.046,38.4265 L 311.377,36.9942" style="fill:none;fill-rule:evenodd;stroke:#000000;stroke-width:2.0px;stroke-linecap:butt;stroke-linejoin:miter;stroke-opacity:1"/>
<path class="bond-6 atom-6 atom-7" d="M 311.377,36.9942 L 324.283,56.4836" style="fill:none;fill-rule:evenodd;stroke:#000000;stroke-width:2.0px;stroke-linecap:butt;stroke-linejoin:miter;stroke-opacity:1"/>
<path class="bond-6 atom-6 atom-7" d="M 309.415,42.4988 L 318.45,56.1414" style="fill:none;fill-rule:evenodd;stroke:#000000;stroke-width:2.0px;stroke-linecap:butt;stroke-linejoin:miter;stroke-opacity:1"/>
<path class="bond-7 atom-7 atom-8" d="M 324.283,56.4836 L 313.858,77.4053" style="fill:none;fill-rule:evenodd;stroke:#000000;stroke-width:2.0px;stroke-linecap:butt;stroke-linejoin:miter;stroke-opacity:1"/>
<path class="bond-9 atom-7 atom-10" d="M 324.283,56.4836 L 347.615,55.0514" style="fill:none;fill-rule:evenodd;stroke:#000000;stroke-width:2.0px;stroke-linecap:butt;stroke-linejoin:miter;stroke-opacity:1"/>
<path class="bond-8 atom-8 atom-9" d="M 313.858,77.4053 L 290.527,78.8375" style="fill:none;fill-rule:evenodd;stroke:#000000;stroke-width:2.0px;stroke-linecap:butt;stroke-linejoin:miter;stroke-opacity:1"/>
<path class="bond-8 atom-8 atom-9" d="M 310.072,72.9538 L 293.74,73.9564" style="fill:none;fill-rule:evenodd;stroke:#000000;stroke-width:2.0px;stroke-linecap:butt;stroke-linejoin:miter;stroke-opacity:1"/>
<path class="bond-10 atom-10 atom-11" d="M 347.615,55.0514 L 360.521,74.5408" style="fill:none;fill-rule:evenodd;stroke:#000000;stroke-width:2.0px;stroke-linecap:butt;stroke-linejoin:miter;stroke-opacity:1"/>
<path class="bond-11 atom-10 atom-12" d="M 347.615,55.0514 L 358.04,34.1298" style="fill:none;fill-rule:evenodd;stroke:#000000;stroke-width:2.0px;stroke-linecap:butt;stroke-linejoin:miter;stroke-opacity:1"/>
<path class="bond-12 atom-12 atom-13" d="M 359.989,32.8392 L 354.872,25.1117" style="fill:none;fill-rule:evenodd;stroke:#000000;stroke-width:2.0px;stroke-linecap:butt;stroke-linejoin:miter;stroke-opacity:1"/>
<path class="bond-12 atom-12 atom-13" d="M 354.872,25.1117 L 349.755,17.3843" style="fill:none;fill-rule:evenodd;stroke:#FF0000;stroke-width:2.0px;stroke-linecap:butt;stroke-linejoin:miter;stroke-opacity:1"/>
<path class="bond-12 atom-12 atom-13" d="M 356.091,35.4204 L 350.974,27.6929" style="fill:none;fill-rule:evenodd;stroke:#000000;stroke-width:2.0px;stroke-linecap:butt;stroke-linejoin:miter;stroke-opacity:1"/>
<path class="bond-12 atom-12 atom-13" d="M 350.974,27.6929 L 345.857,19.9655" style="fill:none;fill-rule:evenodd;stroke:#FF0000;stroke-width:2.0px;stroke-linecap:butt;stroke-linejoin:miter;stroke-opacity:1"/>
<path class="bond-13 atom-12 atom-14" d="M 358.04,34.1298 L 367.894,33.5248" style="fill:none;fill-rule:evenodd;stroke:#000000;stroke-width:2.0px;stroke-linecap:butt;stroke-linejoin:miter;stroke-opacity:1"/>
<path class="bond-13 atom-12 atom-14" d="M 367.894,33.5248 L 377.748,32.9199" style="fill:none;fill-rule:evenodd;stroke:#FF0000;stroke-width:2.0px;stroke-linecap:butt;stroke-linejoin:miter;stroke-opacity:1"/>
<path class="atom-13" d="M 342.095 14.659 Q 342.095 13.0695, 342.881 12.1813 Q 343.666 11.293, 345.134 11.293 Q 346.602 11.293, 347.387 12.1813 Q 348.173 13.0695, 348.173 14.659 Q 348.173 16.2673, 347.378 17.1836 Q 346.583 18.0905, 345.134 18.0905 Q 343.675 18.0905, 342.881 17.1836 Q 342.095 16.2766, 342.095 14.659 M 345.134 17.3425 Q 346.144 17.3425, 346.686 16.6693 Q 347.238 15.9868, 347.238 14.659 Q 347.238 13.3594, 346.686 12.7049 Q 346.144 12.041, 345.134 12.041 Q 344.124 12.041, 343.573 12.6955 Q 343.03 13.35, 343.03 14.659 Q 343.03 15.9961, 343.573 16.6693 Q 344.124 17.3425, 345.134 17.3425 " fill="#FF0000"/>
<path class="atom-14" d="M 378.333 32.7162 Q 378.333 31.1267, 379.118 30.2384 Q 379.903 29.3502, 381.371 29.3502 Q 382.839 29.3502, 383.625 30.2384 Q 384.41 31.1267, 384.41 32.7162 Q 384.41 34.3244, 383.615 35.2407 Q 382.821 36.1477, 381.371 36.1477 Q 379.913 36.1477, 379.118 35.2407 Q 378.333 34.3338, 378.333 32.7162 M 381.371 35.3997 Q 382.381 35.3997, 382.923 34.7265 Q 383.475 34.0439, 383.475 32.7162 Q 383.475 31.4166, 382.923 30.762 Q 382.381 30.0982, 381.371 30.0982 Q 380.362 30.0982, 379.81 30.7527 Q 379.268 31.4072, 379.268 32.7162 Q 379.268 34.0533, 379.81 34.7265 Q 380.362 35.3997, 381.371 35.3997 " fill="#FF0000"/>
<path class="atom-14" d="M 385.205 29.425 L 386.103 29.425 L 386.103 32.2394 L 389.487 32.2394 L 389.487 29.425 L 390.385 29.425 L 390.385 36.0449 L 389.487 36.0449 L 389.487 32.9874 L 386.103 32.9874 L 386.103 36.0449 L 385.205 36.0449 L 385.205 29.425 " fill="#FF0000"/>
<path class="bond-0 atom-0 atom-1" d="M 438.323,52.5795 L 460.902,46.5295" style="fill:none;fill-rule:evenodd;stroke:#000000;stroke-width:2.0px;stroke-linecap:butt;stroke-linejoin:miter;stroke-opacity:1"/>
<path class="bond-1 atom-1 atom-2" d="M 463.159,47.1345 L 465.644,37.8624" style="fill:none;fill-rule:evenodd;stroke:#000000;stroke-width:2.0px;stroke-linecap:butt;stroke-linejoin:miter;stroke-opacity:1"/>
<path class="bond-1 atom-1 atom-2" d="M 465.644,37.8624 L 468.128,28.5903" style="fill:none;fill-rule:evenodd;stroke:#FF0000;stroke-width:2.0px;stroke-linecap:butt;stroke-linejoin:miter;stroke-opacity:1"/>
<path class="bond-1 atom-1 atom-2" d="M 458.644,45.9245 L 461.128,36.6524" style="fill:none;fill-rule:evenodd;stroke:#000000;stroke-width:2.0px;stroke-linecap:butt;stroke-linejoin:miter;stroke-opacity:1"/>
<path class="bond-1 atom-1 atom-2" d="M 461.128,36.6524 L 463.613,27.3803" style="fill:none;fill-rule:evenodd;stroke:#FF0000;stroke-width:2.0px;stroke-linecap:butt;stroke-linejoin:miter;stroke-opacity:1"/>
<path class="bond-2 atom-1 atom-3" d="M 460.902,46.5295 L 467.619,53.2465" style="fill:none;fill-rule:evenodd;stroke:#000000;stroke-width:2.0px;stroke-linecap:butt;stroke-linejoin:miter;stroke-opacity:1"/>
<path class="bond-2 atom-1 atom-3" d="M 467.619,53.2465 L 474.336,59.9634" style="fill:none;fill-rule:evenodd;stroke:#0000FF;stroke-width:2.0px;stroke-linecap:butt;stroke-linejoin:miter;stroke-opacity:1"/>
<path class="bond-3 atom-3 atom-4" d="M 480.525,62.2291 L 490.267,59.6187" style="fill:none;fill-rule:evenodd;stroke:#0000FF;stroke-width:2.0px;stroke-linecap:butt;stroke-linejoin:miter;stroke-opacity:1"/>
<path class="bond-3 atom-3 atom-4" d="M 490.267,59.6187 L 500.009,57.0084" style="fill:none;fill-rule:evenodd;stroke:#000000;stroke-width:2.0px;stroke-linecap:butt;stroke-linejoin:miter;stroke-opacity:1"/>
<path class="bond-4 atom-4 atom-5" d="M 500.009,57.0084 L 506.059,34.4296" style="fill:none;fill-rule:evenodd;stroke:#000000;stroke-width:2.0px;stroke-linecap:butt;stroke-linejoin:miter;stroke-opacity:1"/>
<path class="bond-4 atom-4 atom-5" d="M 505.432,54.8315 L 509.667,39.0264" style="fill:none;fill-rule:evenodd;stroke:#000000;stroke-width:2.0px;stroke-linecap:butt;stroke-linejoin:miter;stroke-opacity:1"/>
<path class="bond-10 atom-9 atom-4" d="M 516.538,73.5372 L 500.009,57.0084" style="fill:none;fill-rule:evenodd;stroke:#000000;stroke-width:2.0px;stroke-linecap:butt;stroke-linejoin:miter;stroke-opacity:1"/>
<path class="bond-5 atom-5 atom-6" d="M 506.059,34.4296 L 528.638,28.3796" style="fill:none;fill-rule:evenodd;stroke:#000000;stroke-width:2.0px;stroke-linecap:butt;stroke-linejoin:miter;stroke-opacity:1"/>
<path class="bond-6 atom-6 atom-7" d="M 528.638,28.3796 L 545.167,44.9084" style="fill:none;fill-rule:evenodd;stroke:#000000;stroke-width:2.0px;stroke-linecap:butt;stroke-linejoin:miter;stroke-opacity:1"/>
<path class="bond-6 atom-6 atom-7" d="M 527.811,34.1647 L 539.382,45.7349" style="fill:none;fill-rule:evenodd;stroke:#000000;stroke-width:2.0px;stroke-linecap:butt;stroke-linejoin:miter;stroke-opacity:1"/>
<path class="bond-7 atom-7 atom-8" d="M 545.167,44.9084 L 539.117,67.4872" style="fill:none;fill-rule:evenodd;stroke:#000000;stroke-width:2.0px;stroke-linecap:butt;stroke-linejoin:miter;stroke-opacity:1"/>
<path class="bond-9 atom-7 atom-10" d="M 545.167,44.9084 L 554.644,42.3689" style="fill:none;fill-rule:evenodd;stroke:#000000;stroke-width:2.0px;stroke-linecap:butt;stroke-linejoin:miter;stroke-opacity:1"/>
<path class="bond-9 atom-7 atom-10" d="M 554.644,42.3689 L 564.122,39.8293" style="fill:none;fill-rule:evenodd;stroke:#FF0000;stroke-width:2.0px;stroke-linecap:butt;stroke-linejoin:miter;stroke-opacity:1"/>
<path class="bond-8 atom-8 atom-9" d="M 539.117,67.4872 L 516.538,73.5372" style="fill:none;fill-rule:evenodd;stroke:#000000;stroke-width:2.0px;stroke-linecap:butt;stroke-linejoin:miter;stroke-opacity:1"/>
<path class="bond-8 atom-8 atom-9" d="M 534.52,63.879 L 518.715,68.1139" style="fill:none;fill-rule:evenodd;stroke:#000000;stroke-width:2.0px;stroke-linecap:butt;stroke-linejoin:miter;stroke-opacity:1"/>
<path class="atom-2" d="M 463.913 23.9695 Q 463.913 22.3799, 464.698 21.4917 Q 465.484 20.6034, 466.952 20.6034 Q 468.42 20.6034, 469.205 21.4917 Q 469.99 22.3799, 469.99 23.9695 Q 469.99 25.5777, 469.196 26.494 Q 468.401 27.401, 466.952 27.401 Q 465.493 27.401, 464.698 26.494 Q 463.913 25.587, 463.913 23.9695 M 466.952 26.6529 Q 467.961 26.6529, 468.504 25.9797 Q 469.055 25.2972, 469.055 23.9695 Q 469.055 22.6698, 468.504 22.0153 Q 467.961 21.3514, 466.952 21.3514 Q 465.942 21.3514, 465.39 22.0059 Q 464.848 22.6605, 464.848 23.9695 Q 464.848 25.3065, 465.39 25.9797 Q 465.942 26.6529, 466.952 26.6529 " fill="#FF0000"/>
<path class="atom-3" d="M 475.967 59.7484 L 478.136 63.2547 Q 478.351 63.6006, 478.697 64.2271 Q 479.043 64.8536, 479.062 64.891 L 479.062 59.7484 L 479.941 59.7484 L 479.941 66.3683 L 479.034 66.3683 L 476.706 62.5347 Q 476.435 62.0859, 476.145 61.5717 Q 475.864 61.0574, 475.78 60.8985 L 475.78 66.3683 L 474.92 66.3683 L 474.92 59.7484 L 475.967 59.7484 " fill="#0000FF"/>
<path class="atom-3" d="M 474.84 67.0303 L 475.738 67.0303 L 475.738 69.8446 L 479.123 69.8446 L 479.123 67.0303 L 480.02 67.0303 L 480.02 73.6501 L 479.123 73.6501 L 479.123 70.5926 L 475.738 70.5926 L 475.738 73.6501 L 474.84 73.6501 L 474.84 67.0303 " fill="#0000FF"/>
<path class="atom-10" d="M 564.707 38.8772 Q 564.707 37.2877, 565.492 36.3994 Q 566.277 35.5111, 567.745 35.5111 Q 569.213 35.5111, 569.999 36.3994 Q 570.784 37.2877, 570.784 38.8772 Q 570.784 40.4854, 569.989 41.4017 Q 569.195 42.3087, 567.745 42.3087 Q 566.287 42.3087, 565.492 41.4017 Q 564.707 40.4948, 564.707 38.8772 M 567.745 41.5607 Q 568.755 41.5607, 569.298 40.8875 Q 569.849 40.2049, 569.849 38.8772 Q 569.849 37.5775, 569.298 36.923 Q 568.755 36.2592, 567.745 36.2592 Q 566.736 36.2592, 566.184 36.9137 Q 565.642 37.5682, 565.642 38.8772 Q 565.642 40.2143, 566.184 40.8875 Q 566.736 41.5607, 567.745 41.5607 " fill="#FF0000"/>
<path class="atom-10" d="M 571.579 35.586 L 572.477 35.586 L 572.477 38.4003 L 575.861 38.4003 L 575.861 35.586 L 576.759 35.586 L 576.759 42.2058 L 575.861 42.2058 L 575.861 39.1483 L 572.477 39.1483 L 572.477 42.2058 L 571.579 42.2058 L 571.579 35.586 " fill="#FF0000"/>
<path class="bond-0 atom-0 atom-1" d="M 38.3149,150.052 L 59.0802,139.319" style="fill:none;fill-rule:evenodd;stroke:#000000;stroke-width:2.0px;stroke-linecap:butt;stroke-linejoin:miter;stroke-opacity:1"/>
<path class="bond-1 atom-1 atom-2" d="M 59.0802,139.319 L 67.1076,144.465" style="fill:none;fill-rule:evenodd;stroke:#000000;stroke-width:2.0px;stroke-linecap:butt;stroke-linejoin:miter;stroke-opacity:1"/>
<path class="bond-1 atom-1 atom-2" d="M 67.1076,144.465 L 75.135,149.612" style="fill:none;fill-rule:evenodd;stroke:#FF0000;stroke-width:2.0px;stroke-linecap:butt;stroke-linejoin:miter;stroke-opacity:1"/>
<path class="bond-2 atom-2 atom-3" d="M 82.3813,150.063 L 90.9524,145.632" style="fill:none;fill-rule:evenodd;stroke:#FF0000;stroke-width:2.0px;stroke-linecap:butt;stroke-linejoin:miter;stroke-opacity:1"/>
<path class="bond-2 atom-2 atom-3" d="M 90.9524,145.632 L 99.5235,141.202" style="fill:none;fill-rule:evenodd;stroke:#000000;stroke-width:2.0px;stroke-linecap:butt;stroke-linejoin:miter;stroke-opacity:1"/>
<path class="bond-3 atom-3 atom-4" d="M 99.5235,141.202 L 100.611,117.852" style="fill:none;fill-rule:evenodd;stroke:#000000;stroke-width:2.0px;stroke-linecap:butt;stroke-linejoin:miter;stroke-opacity:1"/>
<path class="bond-3 atom-3 atom-4" d="M 104.357,137.917 L 105.118,121.572" style="fill:none;fill-rule:evenodd;stroke:#000000;stroke-width:2.0px;stroke-linecap:butt;stroke-linejoin:miter;stroke-opacity:1"/>
<path class="bond-11 atom-8 atom-3" d="M 119.201,153.819 L 99.5235,141.202" style="fill:none;fill-rule:evenodd;stroke:#000000;stroke-width:2.0px;stroke-linecap:butt;stroke-linejoin:miter;stroke-opacity:1"/>
<path class="bond-4 atom-4 atom-5" d="M 100.611,117.852 L 121.376,107.119" style="fill:none;fill-rule:evenodd;stroke:#000000;stroke-width:2.0px;stroke-linecap:butt;stroke-linejoin:miter;stroke-opacity:1"/>
<path class="bond-5 atom-5 atom-6" d="M 121.376,107.119 L 141.054,119.736" style="fill:none;fill-rule:evenodd;stroke:#000000;stroke-width:2.0px;stroke-linecap:butt;stroke-linejoin:miter;stroke-opacity:1"/>
<path class="bond-5 atom-5 atom-6" d="M 121.805,112.947 L 135.579,121.779" style="fill:none;fill-rule:evenodd;stroke:#000000;stroke-width:2.0px;stroke-linecap:butt;stroke-linejoin:miter;stroke-opacity:1"/>
<path class="bond-6 atom-6 atom-7" d="M 141.054,119.736 L 139.967,143.086" style="fill:none;fill-rule:evenodd;stroke:#000000;stroke-width:2.0px;stroke-linecap:butt;stroke-linejoin:miter;stroke-opacity:1"/>
<path class="bond-7 atom-7 atom-8" d="M 139.967,143.086 L 119.201,153.819" style="fill:none;fill-rule:evenodd;stroke:#000000;stroke-width:2.0px;stroke-linecap:butt;stroke-linejoin:miter;stroke-opacity:1"/>
<path class="bond-7 atom-7 atom-8" d="M 134.705,140.542 L 120.17,148.056" style="fill:none;fill-rule:evenodd;stroke:#000000;stroke-width:2.0px;stroke-linecap:butt;stroke-linejoin:miter;stroke-opacity:1"/>
<path class="bond-8 atom-8 atom-9" d="M 119.201,153.819 L 118.114,177.169" style="fill:none;fill-rule:evenodd;stroke:#000000;stroke-width:2.0px;stroke-linecap:butt;stroke-linejoin:miter;stroke-opacity:1"/>
<path class="bond-9 atom-9 atom-10" d="M 116.852,179.137 L 124.88,184.283" style="fill:none;fill-rule:evenodd;stroke:#000000;stroke-width:2.0px;stroke-linecap:butt;stroke-linejoin:miter;stroke-opacity:1"/>
<path class="bond-9 atom-9 atom-10" d="M 124.88,184.283 L 132.907,189.43" style="fill:none;fill-rule:evenodd;stroke:#FF0000;stroke-width:2.0px;stroke-linecap:butt;stroke-linejoin:miter;stroke-opacity:1"/>
<path class="bond-9 atom-9 atom-10" d="M 119.376,175.201 L 127.403,180.348" style="fill:none;fill-rule:evenodd;stroke:#000000;stroke-width:2.0px;stroke-linecap:butt;stroke-linejoin:miter;stroke-opacity:1"/>
<path class="bond-9 atom-9 atom-10" d="M 127.403,180.348 L 135.43,185.495" style="fill:none;fill-rule:evenodd;stroke:#FF0000;stroke-width:2.0px;stroke-linecap:butt;stroke-linejoin:miter;stroke-opacity:1"/>
<path class="bond-10 atom-9 atom-11" d="M 118.114,177.169 L 109.279,181.736" style="fill:none;fill-rule:evenodd;stroke:#000000;stroke-width:2.0px;stroke-linecap:butt;stroke-linejoin:miter;stroke-opacity:1"/>
<path class="bond-10 atom-9 atom-11" d="M 109.279,181.736 L 100.444,186.302" style="fill:none;fill-rule:evenodd;stroke:#0000FF;stroke-width:2.0px;stroke-linecap:butt;stroke-linejoin:miter;stroke-opacity:1"/>
<path class="atom-2" d="M 75.7194 151.954 Q 75.7194 150.364, 76.5048 149.476 Q 77.2902 148.588, 78.7582 148.588 Q 80.2261 148.588, 81.0115 149.476 Q 81.7969 150.364, 81.7969 151.954 Q 81.7969 153.562, 81.0022 154.479 Q 80.2074 155.386, 78.7582 155.386 Q 77.2995 155.386, 76.5048 154.479 Q 75.7194 153.572, 75.7194 151.954 M 78.7582 154.637 Q 79.768 154.637, 80.3103 153.964 Q 80.8619 153.282, 80.8619 151.954 Q 80.8619 150.654, 80.3103 150 Q 79.768 149.336, 78.7582 149.336 Q 77.7484 149.336, 77.1967 149.99 Q 76.6544 150.645, 76.6544 151.954 Q 76.6544 153.291, 77.1967 153.964 Q 77.7484 154.637, 78.7582 154.637 " fill="#FF0000"/>
<path class="atom-10" d="M 134.753 189.804 Q 134.753 188.215, 135.539 187.326 Q 136.324 186.438, 137.792 186.438 Q 139.26 186.438, 140.045 187.326 Q 140.831 188.215, 140.831 189.804 Q 140.831 191.412, 140.036 192.329 Q 139.241 193.236, 137.792 193.236 Q 136.333 193.236, 135.539 192.329 Q 134.753 191.422, 134.753 189.804 M 137.792 192.488 Q 138.802 192.488, 139.344 191.814 Q 139.896 191.132, 139.896 189.804 Q 139.896 188.504, 139.344 187.85 Q 138.802 187.186, 137.792 187.186 Q 136.782 187.186, 136.231 187.841 Q 135.688 188.495, 135.688 189.804 Q 135.688 191.141, 136.231 191.814 Q 136.782 192.488, 137.792 192.488 " fill="#FF0000"/>
<path class="atom-11" d="M 85.63 184.592 L 86.5276 184.592 L 86.5276 187.406 L 89.9123 187.406 L 89.9123 184.592 L 90.81 184.592 L 90.81 191.212 L 89.9123 191.212 L 89.9123 188.154 L 86.5276 188.154 L 86.5276 191.212 L 85.63 191.212 L 85.63 184.592 " fill="#0000FF"/>
<path class="atom-11" d="M 91.1309 190.98 Q 91.2913 190.566, 91.6739 190.338 Q 92.0565 190.103, 92.5872 190.103 Q 93.2475 190.103, 93.6178 190.461 Q 93.9881 190.819, 93.9881 191.455 Q 93.9881 192.103, 93.5067 192.708 Q 93.0315 193.312, 92.0442 194.028 L 94.0621 194.028 L 94.0621 194.522 L 91.1185 194.522 L 91.1185 194.108 Q 91.9331 193.528, 92.4144 193.096 Q 92.902 192.664, 93.1365 192.276 Q 93.371 191.887, 93.371 191.486 Q 93.371 191.066, 93.1611 190.832 Q 92.9513 190.597, 92.5872 190.597 Q 92.2355 190.597, 92.001 190.739 Q 91.7665 190.881, 91.5999 191.196 L 91.1309 190.98 " fill="#0000FF"/>
<path class="atom-11" d="M 95.8854 184.592 L 98.0546 188.098 Q 98.2697 188.444, 98.6156 189.071 Q 98.9616 189.697, 98.9803 189.735 L 98.9803 184.592 L 99.8592 184.592 L 99.8592 191.212 L 98.9522 191.212 L 96.624 187.378 Q 96.3529 186.93, 96.063 186.415 Q 95.7825 185.901, 95.6984 185.742 L 95.6984 191.212 L 94.8382 191.212 L 94.8382 184.592 L 95.8854 184.592 " fill="#0000FF"/>
<path class="bond-0 atom-0 atom-1" d="M 232.614,126.72 L 248.427,143.935" style="fill:none;fill-rule:evenodd;stroke:#000000;stroke-width:2.0px;stroke-linecap:butt;stroke-linejoin:miter;stroke-opacity:1"/>
<path class="bond-1 atom-1 atom-2" d="M 248.427,143.935 L 271.242,138.848" style="fill:none;fill-rule:evenodd;stroke:#000000;stroke-width:2.0px;stroke-linecap:butt;stroke-linejoin:miter;stroke-opacity:1"/>
<path class="bond-14 atom-1 atom-15" d="M 248.427,143.935 L 241.426,166.237" style="fill:none;fill-rule:evenodd;stroke:#000000;stroke-width:2.0px;stroke-linecap:butt;stroke-linejoin:miter;stroke-opacity:1"/>
<path class="bond-2 atom-2 atom-3" d="M 271.242,138.848 L 278.244,116.546" style="fill:none;fill-rule:evenodd;stroke:#000000;stroke-width:2.0px;stroke-linecap:butt;stroke-linejoin:miter;stroke-opacity:1"/>
<path class="bond-2 atom-2 atom-3" d="M 276.753,136.903 L 281.654,121.291" style="fill:none;fill-rule:evenodd;stroke:#000000;stroke-width:2.0px;stroke-linecap:butt;stroke-linejoin:miter;stroke-opacity:1"/>
<path class="bond-17 atom-7 atom-2" d="M 287.055,156.062 L 271.242,138.848" style="fill:none;fill-rule:evenodd;stroke:#000000;stroke-width:2.0px;stroke-linecap:butt;stroke-linejoin:miter;stroke-opacity:1"/>
<path class="bond-3 atom-3 atom-4" d="M 278.244,116.546 L 301.058,111.458" style="fill:none;fill-rule:evenodd;stroke:#000000;stroke-width:2.0px;stroke-linecap:butt;stroke-linejoin:miter;stroke-opacity:1"/>
<path class="bond-4 atom-4 atom-5" d="M 301.058,111.458 L 316.872,128.673" style="fill:none;fill-rule:evenodd;stroke:#000000;stroke-width:2.0px;stroke-linecap:butt;stroke-linejoin:miter;stroke-opacity:1"/>
<path class="bond-4 atom-4 atom-5" d="M 299.988,117.203 L 311.057,129.253" style="fill:none;fill-rule:evenodd;stroke:#000000;stroke-width:2.0px;stroke-linecap:butt;stroke-linejoin:miter;stroke-opacity:1"/>
<path class="bond-5 atom-5 atom-6" d="M 316.872,128.673 L 309.87,150.975" style="fill:none;fill-rule:evenodd;stroke:#000000;stroke-width:2.0px;stroke-linecap:butt;stroke-linejoin:miter;stroke-opacity:1"/>
<path class="bond-7 atom-5 atom-8" d="M 316.872,128.673 L 339.687,123.585" style="fill:none;fill-rule:evenodd;stroke:#000000;stroke-width:2.0px;stroke-linecap:butt;stroke-linejoin:miter;stroke-opacity:1"/>
<path class="bond-6 atom-6 atom-7" d="M 309.87,150.975 L 287.055,156.062" style="fill:none;fill-rule:evenodd;stroke:#000000;stroke-width:2.0px;stroke-linecap:butt;stroke-linejoin:miter;stroke-opacity:1"/>
<path class="bond-6 atom-6 atom-7" d="M 305.431,147.175 L 289.46,150.736" style="fill:none;fill-rule:evenodd;stroke:#000000;stroke-width:2.0px;stroke-linecap:butt;stroke-linejoin:miter;stroke-opacity:1"/>
<path class="bond-8 atom-8 atom-9" d="M 339.687,123.585 L 355.5,140.8" style="fill:none;fill-rule:evenodd;stroke:#000000;stroke-width:2.0px;stroke-linecap:butt;stroke-linejoin:miter;stroke-opacity:1"/>
<path class="bond-9 atom-9 atom-10" d="M 355.5,140.8 L 378.722,138.125" style="fill:none;fill-rule:evenodd;stroke:#000000;stroke-width:2.0px;stroke-linecap:butt;stroke-linejoin:miter;stroke-opacity:1"/>
<path class="bond-18 atom-13 atom-9" d="M 350.868,163.711 L 355.5,140.8" style="fill:none;fill-rule:evenodd;stroke:#000000;stroke-width:2.0px;stroke-linecap:butt;stroke-linejoin:miter;stroke-opacity:1"/>
<path class="bond-10 atom-10 atom-11" d="M 378.722,138.125 L 388.442,159.384" style="fill:none;fill-rule:evenodd;stroke:#000000;stroke-width:2.0px;stroke-linecap:butt;stroke-linejoin:miter;stroke-opacity:1"/>
<path class="bond-11 atom-11 atom-12" d="M 388.442,159.384 L 371.227,175.197" style="fill:none;fill-rule:evenodd;stroke:#000000;stroke-width:2.0px;stroke-linecap:butt;stroke-linejoin:miter;stroke-opacity:1"/>
<path class="bond-12 atom-12 atom-13" d="M 371.227,175.197 L 350.868,163.711" style="fill:none;fill-rule:evenodd;stroke:#000000;stroke-width:2.0px;stroke-linecap:butt;stroke-linejoin:miter;stroke-opacity:1"/>
<path class="bond-13 atom-13 atom-14" d="M 349.896,161.586 L 341.078,165.617" style="fill:none;fill-rule:evenodd;stroke:#000000;stroke-width:2.0px;stroke-linecap:butt;stroke-linejoin:miter;stroke-opacity:1"/>
<path class="bond-13 atom-13 atom-14" d="M 341.078,165.617 L 332.261,169.649" style="fill:none;fill-rule:evenodd;stroke:#FF0000;stroke-width:2.0px;stroke-linecap:butt;stroke-linejoin:miter;stroke-opacity:1"/>
<path class="bond-13 atom-13 atom-14" d="M 351.84,165.837 L 343.022,169.869" style="fill:none;fill-rule:evenodd;stroke:#000000;stroke-width:2.0px;stroke-linecap:butt;stroke-linejoin:miter;stroke-opacity:1"/>
<path class="bond-13 atom-13 atom-14" d="M 343.022,169.869 L 334.205,173.901" style="fill:none;fill-rule:evenodd;stroke:#FF0000;stroke-width:2.0px;stroke-linecap:butt;stroke-linejoin:miter;stroke-opacity:1"/>
<path class="bond-15 atom-15 atom-16" d="M 239.704,167.818 L 245.805,174.46" style="fill:none;fill-rule:evenodd;stroke:#000000;stroke-width:2.0px;stroke-linecap:butt;stroke-linejoin:miter;stroke-opacity:1"/>
<path class="bond-15 atom-15 atom-16" d="M 245.805,174.46 L 251.906,181.101" style="fill:none;fill-rule:evenodd;stroke:#FF0000;stroke-width:2.0px;stroke-linecap:butt;stroke-linejoin:miter;stroke-opacity:1"/>
<path class="bond-15 atom-15 atom-16" d="M 243.147,164.656 L 249.248,171.297" style="fill:none;fill-rule:evenodd;stroke:#000000;stroke-width:2.0px;stroke-linecap:butt;stroke-linejoin:miter;stroke-opacity:1"/>
<path class="bond-15 atom-15 atom-16" d="M 249.248,171.297 L 255.349,177.939" style="fill:none;fill-rule:evenodd;stroke:#FF0000;stroke-width:2.0px;stroke-linecap:butt;stroke-linejoin:miter;stroke-opacity:1"/>
<path class="bond-16 atom-15 atom-17" d="M 241.426,166.237 L 231.83,168.377" style="fill:none;fill-rule:evenodd;stroke:#000000;stroke-width:2.0px;stroke-linecap:butt;stroke-linejoin:miter;stroke-opacity:1"/>
<path class="bond-16 atom-15 atom-17" d="M 231.83,168.377 L 222.234,170.517" style="fill:none;fill-rule:evenodd;stroke:#FF0000;stroke-width:2.0px;stroke-linecap:butt;stroke-linejoin:miter;stroke-opacity:1"/>
<path class="atom-14" d="M 326.571 173.45 Q 326.571 171.86, 327.356 170.972 Q 328.141 170.084, 329.609 170.084 Q 331.077 170.084, 331.863 170.972 Q 332.648 171.86, 332.648 173.45 Q 332.648 175.058, 331.853 175.974 Q 331.059 176.881, 329.609 176.881 Q 328.151 176.881, 327.356 175.974 Q 326.571 175.068, 326.571 173.45 M 329.609 176.133 Q 330.619 176.133, 331.162 175.46 Q 331.713 174.778, 331.713 173.45 Q 331.713 172.15, 331.162 171.496 Q 330.619 170.832, 329.609 170.832 Q 328.6 170.832, 328.048 171.486 Q 327.506 172.141, 327.506 173.45 Q 327.506 174.787, 328.048 175.46 Q 328.6 176.133, 329.609 176.133 " fill="#FF0000"/>
<path class="atom-16" d="M 254.2 183.47 Q 254.2 181.881, 254.985 180.993 Q 255.771 180.104, 257.239 180.104 Q 258.707 180.104, 259.492 180.993 Q 260.278 181.881, 260.278 183.47 Q 260.278 185.079, 259.483 185.995 Q 258.688 186.902, 257.239 186.902 Q 255.78 186.902, 254.985 185.995 Q 254.2 185.088, 254.2 183.47 M 257.239 186.154 Q 258.249 186.154, 258.791 185.481 Q 259.343 184.798, 259.343 183.47 Q 259.343 182.171, 258.791 181.516 Q 258.249 180.852, 257.239 180.852 Q 256.229 180.852, 255.677 181.507 Q 255.135 182.161, 255.135 183.47 Q 255.135 184.807, 255.677 185.481 Q 256.229 186.154, 257.239 186.154 " fill="#FF0000"/>
<path class="atom-17" d="M 209.924 168.052 L 210.822 168.052 L 210.822 170.866 L 214.207 170.866 L 214.207 168.052 L 215.104 168.052 L 215.104 174.672 L 214.207 174.672 L 214.207 171.614 L 210.822 171.614 L 210.822 174.672 L 209.924 174.672 L 209.924 168.052 " fill="#FF0000"/>
<path class="atom-17" d="M 215.572 171.343 Q 215.572 169.754, 216.357 168.865 Q 217.143 167.977, 218.611 167.977 Q 220.079 167.977, 220.864 168.865 Q 221.649 169.754, 221.649 171.343 Q 221.649 172.951, 220.855 173.868 Q 220.06 174.775, 218.611 174.775 Q 217.152 174.775, 216.357 173.868 Q 215.572 172.961, 215.572 171.343 M 218.611 174.027 Q 219.62 174.027, 220.163 173.354 Q 220.714 172.671, 220.714 171.343 Q 220.714 170.044, 220.163 169.389 Q 219.62 168.725, 218.611 168.725 Q 217.601 168.725, 217.049 169.38 Q 216.507 170.034, 216.507 171.343 Q 216.507 172.68, 217.049 173.354 Q 217.601 174.027, 218.611 174.027 " fill="#FF0000"/>
<path class="bond-0 atom-0 atom-1" d="M 556.917,169.183 L 551.155,161.994" style="fill:none;fill-rule:evenodd;stroke:#000000;stroke-width:2.0px;stroke-linecap:butt;stroke-linejoin:miter;stroke-opacity:1"/>
<path class="bond-0 atom-0 atom-1" d="M 551.155,161.994 L 545.393,154.804" style="fill:none;fill-rule:evenodd;stroke:#0000FF;stroke-width:2.0px;stroke-linecap:butt;stroke-linejoin:miter;stroke-opacity:1"/>
<path class="bond-1 atom-1 atom-2" d="M 543.363,147.048 L 545.913,137.722" style="fill:none;fill-rule:evenodd;stroke:#0000FF;stroke-width:2.0px;stroke-linecap:butt;stroke-linejoin:miter;stroke-opacity:1"/>
<path class="bond-1 atom-1 atom-2" d="M 545.913,137.722 L 548.462,128.395" style="fill:none;fill-rule:evenodd;stroke:#000000;stroke-width:2.0px;stroke-linecap:butt;stroke-linejoin:miter;stroke-opacity:1"/>
<path class="bond-13 atom-5 atom-1" d="M 518.949,152.048 L 529.076,151.569" style="fill:none;fill-rule:evenodd;stroke:#000000;stroke-width:2.0px;stroke-linecap:butt;stroke-linejoin:miter;stroke-opacity:1"/>
<path class="bond-13 atom-5 atom-1" d="M 529.076,151.569 L 539.204,151.089" style="fill:none;fill-rule:evenodd;stroke:#0000FF;stroke-width:2.0px;stroke-linecap:butt;stroke-linejoin:miter;stroke-opacity:1"/>
<path class="bond-2 atom-2 atom-3" d="M 548.462,128.395 L 540.24,122.996" style="fill:none;fill-rule:evenodd;stroke:#000000;stroke-width:2.0px;stroke-linecap:butt;stroke-linejoin:miter;stroke-opacity:1"/>
<path class="bond-2 atom-2 atom-3" d="M 540.24,122.996 L 532.018,117.597" style="fill:none;fill-rule:evenodd;stroke:#0000FF;stroke-width:2.0px;stroke-linecap:butt;stroke-linejoin:miter;stroke-opacity:1"/>
<path class="bond-2 atom-2 atom-3" d="M 543.43,130.683 L 537.674,126.904" style="fill:none;fill-rule:evenodd;stroke:#000000;stroke-width:2.0px;stroke-linecap:butt;stroke-linejoin:miter;stroke-opacity:1"/>
<path class="bond-2 atom-2 atom-3" d="M 537.674,126.904 L 531.918,123.125" style="fill:none;fill-rule:evenodd;stroke:#0000FF;stroke-width:2.0px;stroke-linecap:butt;stroke-linejoin:miter;stroke-opacity:1"/>
<path class="bond-3 atom-3 atom-4" d="M 525.828,118.045 L 518.255,124.114" style="fill:none;fill-rule:evenodd;stroke:#0000FF;stroke-width:2.0px;stroke-linecap:butt;stroke-linejoin:miter;stroke-opacity:1"/>
<path class="bond-3 atom-3 atom-4" d="M 518.255,124.114 L 510.683,130.183" style="fill:none;fill-rule:evenodd;stroke:#000000;stroke-width:2.0px;stroke-linecap:butt;stroke-linejoin:miter;stroke-opacity:1"/>
<path class="bond-4 atom-4 atom-5" d="M 510.683,130.183 L 518.949,152.048" style="fill:none;fill-rule:evenodd;stroke:#000000;stroke-width:2.0px;stroke-linecap:butt;stroke-linejoin:miter;stroke-opacity:1"/>
<path class="bond-4 atom-4 atom-5" d="M 516.296,131.81 L 522.082,147.115" style="fill:none;fill-rule:evenodd;stroke:#000000;stroke-width:2.0px;stroke-linecap:butt;stroke-linejoin:miter;stroke-opacity:1"/>
<path class="bond-14 atom-11 atom-4" d="M 490.709,126.916 L 500.696,128.55" style="fill:none;fill-rule:evenodd;stroke:#0000FF;stroke-width:2.0px;stroke-linecap:butt;stroke-linejoin:miter;stroke-opacity:1"/>
<path class="bond-14 atom-11 atom-4" d="M 500.696,128.55 L 510.683,130.183" style="fill:none;fill-rule:evenodd;stroke:#000000;stroke-width:2.0px;stroke-linecap:butt;stroke-linejoin:miter;stroke-opacity:1"/>
<path class="bond-5 atom-5 atom-6" d="M 518.949,152.048 L 504.147,170.14" style="fill:none;fill-rule:evenodd;stroke:#000000;stroke-width:2.0px;stroke-linecap:butt;stroke-linejoin:miter;stroke-opacity:1"/>
<path class="bond-6 atom-6 atom-7" d="M 501.961,170.966 L 505.351,179.933" style="fill:none;fill-rule:evenodd;stroke:#000000;stroke-width:2.0px;stroke-linecap:butt;stroke-linejoin:miter;stroke-opacity:1"/>
<path class="bond-6 atom-6 atom-7" d="M 505.351,179.933 L 508.741,188.899" style="fill:none;fill-rule:evenodd;stroke:#FF0000;stroke-width:2.0px;stroke-linecap:butt;stroke-linejoin:miter;stroke-opacity:1"/>
<path class="bond-6 atom-6 atom-7" d="M 506.334,169.313 L 509.724,178.279" style="fill:none;fill-rule:evenodd;stroke:#000000;stroke-width:2.0px;stroke-linecap:butt;stroke-linejoin:miter;stroke-opacity:1"/>
<path class="bond-6 atom-6 atom-7" d="M 509.724,178.279 L 513.114,187.246" style="fill:none;fill-rule:evenodd;stroke:#FF0000;stroke-width:2.0px;stroke-linecap:butt;stroke-linejoin:miter;stroke-opacity:1"/>
<path class="bond-7 atom-6 atom-8" d="M 504.147,170.14 L 494.16,168.506" style="fill:none;fill-rule:evenodd;stroke:#000000;stroke-width:2.0px;stroke-linecap:butt;stroke-linejoin:miter;stroke-opacity:1"/>
<path class="bond-7 atom-6 atom-8" d="M 494.16,168.506 L 484.173,166.873" style="fill:none;fill-rule:evenodd;stroke:#0000FF;stroke-width:2.0px;stroke-linecap:butt;stroke-linejoin:miter;stroke-opacity:1"/>
<path class="bond-8 atom-8 atom-9" d="M 479.606,162.472 L 476.209,153.487" style="fill:none;fill-rule:evenodd;stroke:#0000FF;stroke-width:2.0px;stroke-linecap:butt;stroke-linejoin:miter;stroke-opacity:1"/>
<path class="bond-8 atom-8 atom-9" d="M 476.209,153.487 L 472.812,144.502" style="fill:none;fill-rule:evenodd;stroke:#000000;stroke-width:2.0px;stroke-linecap:butt;stroke-linejoin:miter;stroke-opacity:1"/>
<path class="bond-12 atom-8 atom-13" d="M 477.984,170.149 L 472.13,177.303" style="fill:none;fill-rule:evenodd;stroke:#0000FF;stroke-width:2.0px;stroke-linecap:butt;stroke-linejoin:miter;stroke-opacity:1"/>
<path class="bond-12 atom-8 atom-13" d="M 472.13,177.303 L 466.276,184.458" style="fill:none;fill-rule:evenodd;stroke:#000000;stroke-width:2.0px;stroke-linecap:butt;stroke-linejoin:miter;stroke-opacity:1"/>
<path class="bond-9 atom-9 atom-10" d="M 473.189,142.195 L 463.466,140.604" style="fill:none;fill-rule:evenodd;stroke:#000000;stroke-width:2.0px;stroke-linecap:butt;stroke-linejoin:miter;stroke-opacity:1"/>
<path class="bond-9 atom-9 atom-10" d="M 463.466,140.604 L 453.744,139.014" style="fill:none;fill-rule:evenodd;stroke:#FF0000;stroke-width:2.0px;stroke-linecap:butt;stroke-linejoin:miter;stroke-opacity:1"/>
<path class="bond-9 atom-9 atom-10" d="M 472.435,146.808 L 462.712,145.218" style="fill:none;fill-rule:evenodd;stroke:#000000;stroke-width:2.0px;stroke-linecap:butt;stroke-linejoin:miter;stroke-opacity:1"/>
<path class="bond-9 atom-9 atom-10" d="M 462.712,145.218 L 452.989,143.628" style="fill:none;fill-rule:evenodd;stroke:#FF0000;stroke-width:2.0px;stroke-linecap:butt;stroke-linejoin:miter;stroke-opacity:1"/>
<path class="bond-10 atom-9 atom-11" d="M 472.812,144.502 L 478.666,137.347" style="fill:none;fill-rule:evenodd;stroke:#000000;stroke-width:2.0px;stroke-linecap:butt;stroke-linejoin:miter;stroke-opacity:1"/>
<path class="bond-10 atom-9 atom-11" d="M 478.666,137.347 L 484.519,130.193" style="fill:none;fill-rule:evenodd;stroke:#0000FF;stroke-width:2.0px;stroke-linecap:butt;stroke-linejoin:miter;stroke-opacity:1"/>
<path class="bond-11 atom-11 atom-12" d="M 486.142,122.516 L 482.745,113.531" style="fill:none;fill-rule:evenodd;stroke:#0000FF;stroke-width:2.0px;stroke-linecap:butt;stroke-linejoin:miter;stroke-opacity:1"/>
<path class="bond-11 atom-11 atom-12" d="M 482.745,113.531 L 479.347,104.545" style="fill:none;fill-rule:evenodd;stroke:#000000;stroke-width:2.0px;stroke-linecap:butt;stroke-linejoin:miter;stroke-opacity:1"/>
<path class="atom-1" d="M 540.835 147.633 L 543.004 151.139 Q 543.219 151.485, 543.565 152.112 Q 543.911 152.738, 543.93 152.775 L 543.93 147.633 L 544.809 147.633 L 544.809 154.253 L 543.902 154.253 L 541.574 150.419 Q 541.303 149.97, 541.013 149.456 Q 540.732 148.942, 540.648 148.783 L 540.648 154.253 L 539.788 154.253 L 539.788 147.633 L 540.835 147.633 " fill="#0000FF"/>
<path class="atom-3" d="M 527.459 112.255 L 529.629 115.761 Q 529.844 116.107, 530.19 116.734 Q 530.536 117.36, 530.554 117.398 L 530.554 112.255 L 531.433 112.255 L 531.433 118.875 L 530.526 118.875 L 528.198 115.041 Q 527.927 114.593, 527.637 114.078 Q 527.357 113.564, 527.272 113.405 L 527.272 118.875 L 526.412 118.875 L 526.412 112.255 L 527.459 112.255 " fill="#0000FF"/>
<path class="atom-7" d="M 509.375 192.023 Q 509.375 190.434, 510.16 189.545 Q 510.946 188.657, 512.414 188.657 Q 513.882 188.657, 514.667 189.545 Q 515.453 190.434, 515.453 192.023 Q 515.453 193.631, 514.658 194.548 Q 513.863 195.455, 512.414 195.455 Q 510.955 195.455, 510.16 194.548 Q 509.375 193.641, 509.375 192.023 M 512.414 194.707 Q 513.424 194.707, 513.966 194.033 Q 514.518 193.351, 514.518 192.023 Q 514.518 190.723, 513.966 190.069 Q 513.424 189.405, 512.414 189.405 Q 511.404 189.405, 510.852 190.06 Q 510.31 190.714, 510.31 192.023 Q 510.31 193.36, 510.852 194.033 Q 511.404 194.707, 512.414 194.707 " fill="#FF0000"/>
<path class="atom-8" d="M 479.615 163.056 L 481.784 166.563 Q 481.999 166.909, 482.345 167.535 Q 482.691 168.162, 482.71 168.199 L 482.71 163.056 L 483.589 163.056 L 483.589 169.676 L 482.682 169.676 L 480.354 165.843 Q 480.083 165.394, 479.793 164.88 Q 479.512 164.365, 479.428 164.206 L 479.428 169.676 L 478.568 169.676 L 478.568 163.056 L 479.615 163.056 " fill="#0000FF"/>
<path class="atom-10" d="M 446.704 140.747 Q 446.704 139.157, 447.49 138.269 Q 448.275 137.381, 449.743 137.381 Q 451.211 137.381, 451.997 138.269 Q 452.782 139.157, 452.782 140.747 Q 452.782 142.355, 451.987 143.272 Q 451.192 144.179, 449.743 144.179 Q 448.285 144.179, 447.49 143.272 Q 446.704 142.365, 446.704 140.747 M 449.743 143.43 Q 450.753 143.43, 451.295 142.757 Q 451.847 142.075, 451.847 140.747 Q 451.847 139.447, 451.295 138.793 Q 450.753 138.129, 449.743 138.129 Q 448.733 138.129, 448.182 138.783 Q 447.639 139.438, 447.639 140.747 Q 447.639 142.084, 448.182 142.757 Q 448.733 143.43, 449.743 143.43 " fill="#FF0000"/>
<path class="atom-11" d="M 486.151 123.1 L 488.32 126.607 Q 488.535 126.952, 488.881 127.579 Q 489.227 128.205, 489.246 128.243 L 489.246 123.1 L 490.125 123.1 L 490.125 129.72 L 489.218 129.72 L 486.889 125.887 Q 486.618 125.438, 486.328 124.924 Q 486.048 124.409, 485.964 124.25 L 485.964 129.72 L 485.104 129.72 L 485.104 123.1 L 486.151 123.1 " fill="#0000FF"/>
</svg>